<?xml version="1.0" encoding="utf-8"?>
<!-- Generator: Adobe Illustrator 23.0.0, SVG Export Plug-In . SVG Version: 6.00 Build 0)  -->
<svg version="1.1" id="Layer_1" xmlns="http://www.w3.org/2000/svg" xmlns:xlink="http://www.w3.org/1999/xlink" x="0px" y="0px"
	 viewBox="0 0 512 512" style="enable-background:new 0 0 512 512;" xml:space="preserve">
<title>SVG music  notes flat</title>
<g>
	<g>
		<path d="M295.21,470.4c-0.12-7.46,1.45-14.86,4.61-21.62c3.14-6.63,7.6-12.54,13.12-17.37c5.56-5.11,12.06-9.09,19.14-11.7
			c7.22-2.88,14.92-4.32,22.69-4.25c5.74-0.08,11.47,0.63,17.02,2.13V304.86H216.51v141.79c0.15,8.43-1.17,16.83-3.9,24.81
			c-2.58,7.56-6.41,14.63-11.34,20.91c-4.86,5.76-10.75,10.57-17.37,14.18c-6.89,3.59-14.56,5.41-22.33,5.32
			c-11.59,0.88-23.02-3.1-31.55-10.99c-7.66-7.81-11.66-18.5-10.99-29.42c-0.14-14.98,6.35-29.25,17.72-38.99
			c5.48-5.03,11.85-9,18.79-11.7c7.35-2.84,15.16-4.29,23.04-4.25c5.62-0.06,11.23,0.66,16.66,2.13V207.73h197.8v237.86
			c-0.03,8.42-1.34,16.79-3.9,24.81c-2.7,7.5-6.53,14.56-11.34,20.91c-4.92,5.85-10.94,10.66-17.72,14.18
			c-6.89,3.59-14.56,5.41-22.33,5.32c-11.58,0.84-22.99-3.14-31.55-10.99C298.53,492.02,294.54,481.32,295.21,470.4z M216.51,273.31
			h155.27v-35.45H216.51V273.31z"/>
	</g>
	<rect x="371.78" width="21.27" height="207.73"/>
</g>
</svg>
